/* XPM */
static char *haskell_14[] = {
/* columns rows colors chars-per-pixel */
"14 14 2 1 ",
"  c white",
". c None",
/* pixels */
"..............",
"..............",
"   .  ........",
".  .   .......",
".   .   ......",
"..   .        ",
"...      .....",
"...      .....",
"..   .    .   ",
".   .      ...",
".  .   ..   ..",
"   .  ....  ..",
"..............",
".............."
};
