/* XPM */
static char *haskell_12[] = {
/* columns rows colors chars-per-pixel */
"12 12 2 1 ",
"  c white",
". c None",
/* pixels */
"............",
"............",
"     .......",
".  .  ......",
"..  .       ",
"..      ....",
"..      ....",
"..  .    .  ",
".  .  .  ...",
"     ...  ..",
"............",
"............"
};
