/* XPM */
static char *haskell_16[] = {
/* columns rows colors chars-per-pixel */
"16 16 2 1 ",
"  c white",
". c None",
/* pixels */
"................",
"................",
"   .   .........",
".   .  .........",
"..  .   ........",
"..   .   .......",
"...             ",
"...   .   ......",
"...   .    .....",
"...             ",
"..   .      ....",
"..  .   ..   ...",
".   .  ....   ..",
"   .   ..... ...",
"................",
"................"
};
